#!OML:ASF I:\Random Stuff\random\construction\7_22_03\Session 2\subj1.ASF
:FULLY-SPECIFIED
:DEGREES
893
root 6.13738 17.9557 -10.3571 -5.21767 -50.3954 13.6503
lowerback 9.90008 0.483927 5.2419
upperback 1.78473 1.27216 3.82772
thorax -3.66458 0.554659 0.875072
lowerneck -19.6544 -1.22305 -2.15198
upperneck 39.5602 -4.57896 5.90049
head 18.4164 -1.50543 2.14041
rclavicle -7.07673e-014 -1.27222e-014
rhumerus -28.2548 -0.681147 -70.4295
rradius 59.4799
rwrist -13.3221
rhand -36.3922 47.353
rfingers 7.12502
rthumb -9.48821 17.5866
lclavicle -7.07673e-014 -1.27222e-014
lhumerus -36.6019 -13.53 94.0564
lradius 46.9767
lwrist 18.0048
lhand -18.8752 53.2322
lfingers 7.12502
lthumb 7.42566 803.082
rfemur -6.48439 -7.36516 19.5931
rtibia 4.55139
rfoot -10.1385 -14.8655
rtoes 34.9532
lfemur -19.9552 15.3172 -18.6783
ltibia 40.0538
lfoot -20.1091 10.958
ltoes -5.70774
894
root 6.14426 17.9582 -10.3508 -5.18582 -50.1196 13.7015
lowerback 9.84167 0.648125 5.38523
upperback 1.82937 1.49176 3.6413
thorax -3.57153 0.6641 0.573483
lowerneck -19.8809 -0.481944 -1.28224
upperneck 40.0605 -3.5527 5.32191
head 18.6616 -1.0361 1.94415
rclavicle 9.54166e-014 5.08889e-014
rhumerus -29.0218 -1.66744 -70.2163
rradius 59.4749
rwrist -13.2629
rhand -36.6453 46.9404
rfingers 7.12502
rthumb -9.73242 17.1853
lclavicle 9.54166e-014 5.08889e-014
lhumerus -36.5452 -13.386 93.6739
lradius 46.4089
lwrist 18.3676
lhand -18.8803 53.2252
lfingers 7.12502
lthumb 7.42067 803.075
rfemur -6.54242 -10.4074 19.8504
rtibia 4.34136
rfoot -9.64556 -12.0134
rtoes 35.4303
lfemur -19.5345 15.4601 -18.569
ltibia 40.1661
lfoot -20.2842 10.9563
ltoes -4.28231
895
root 6.15119 17.957 -10.3444 -5.11834 -49.8079 13.6339
lowerback 9.85958 0.743049 5.4618
upperback 1.88047 1.62122 3.56936
thorax -3.51998 0.728816 0.439591
lowerneck -19.7837 0.216048 -0.662415
upperneck 40.285 -2.54079 4.92821
head 18.688 -0.591622 1.86652
rclavicle 3.33958e-014 -2.22639e-014
rhumerus -29.8842 -2.25678 -69.9965
rradius 59.5605
rwrist -13.686
rhand -36.3457 46.91
rfingers 7.12502
rthumb -9.44336 17.1416
lclavicle 3.33958e-014 -2.22639e-014
lhumerus -36.4681 -12.9717 93.3488
lradius 45.8408
lwrist 18.5316
lhand -18.823 53.3716
lfingers 7.12502
lthumb 7.47601 803.22
rfemur -6.48824 -13.4924 20.1661
rtibia 4.02559
rfoot -9.35826 -9.09715
rtoes 36.8604
lfemur -19.0227 15.5893 -18.3871
ltibia 40.1825
lfoot -20.7345 11.0727
ltoes -2.31059
896
root 6.15879 17.9562 -10.337 -4.94529 -49.3892 13.5165
lowerback 9.8251 0.777164 5.49296
upperback 1.90033 1.66554 3.56026
thorax -3.4775 0.751669 0.407847
lowerneck -19.7235 0.906783 -0.105131
upperneck 40.5225 -1.48935 4.4823
head 18.7475 -0.148562 1.78329
rclavicle -1.1291e-013 -1.59028e-014
rhumerus -30.8713 -2.36399 -69.8059
rradius 59.662
rwrist -14.592
rhand -36.4924 45.8963
rfingers 7.12502
rthumb -9.58494 16.1343
lclavicle -1.1291e-013 -1.59028e-014
lhumerus -36.3448 -12.4108 93.0563
lradius 45.1992
lwrist 18.491
lhand -18.6401 53.2528
lfingers 7.12502
lthumb 7.65251 803.094
rfemur -6.74137 -16.7377 20.1669
rtibia 4.34535
rfoot -9.43794 -6.06793
rtoes 38.6982
lfemur -18.5626 15.5993 -18.2365
ltibia 40.1243
lfoot -21.0214 11.4585
ltoes -2.08128
897
root 6.16784 17.9591 -10.3299 -4.76545 -48.884 13.4872
lowerback 9.7646 0.840906 5.53865
upperback 1.85067 1.75189 3.46129
thorax -3.48848 0.794012 0.269239
lowerneck -19.6091 1.50331 0.476535
upperneck 40.7013 -0.640517 4.15154
head 18.7848 0.234857 1.70528
rclavicle -1.17681e-013 2.8625e-014
rhumerus -32.2036 -2.33425 -69.7104
rradius 59.9088
rwrist -16.1053
rhand -36.8552 43.4192
rfingers 7.12502
rthumb -9.93497 13.6736
lclavicle -1.17681e-013 2.8625e-014
lhumerus -36.2842 -12.087 92.7437
lradius 44.6635
lwrist 18.5046
lhand -18.2409 52.9715
lfingers 7.12502
lthumb 8.03785 802.799
rfemur -7.09829 -20.0649 20.147
rtibia 4.70246
rfoot -9.30759 -3.09071
rtoes 39.8362
lfemur -18.1747 15.5517 -18.1937
ltibia 40.0079
lfoot -21.2872 11.9758
ltoes -1.10024
898
root 6.17494 17.9601 -10.3236 -4.53387 -48.2218 13.4166
lowerback 9.65729 0.920614 5.6275
upperback 1.78209 1.85982 3.29882
thorax -3.48835 0.846853 0.0387658
lowerneck -19.501 2.00112 1.08802
upperneck 40.8159 -0.00189738 3.93451
head 18.8068 0.557842 1.63033
rclavicle 5.64548e-014 -3.49861e-014
rhumerus -33.7945 -2.12088 -69.7997
rradius 60.2401
rwrist -18.3755
rhand -37.9231 41.5245
rfingers 7.12502
rthumb -10.9651 11.8308
lclavicle 5.64548e-014 -3.49861e-014
lhumerus -36.3086 -12.1276 92.5293
lradius 44.472
lwrist 18.8792
lhand -18.6737 53.6645
lfingers 7.12502
lthumb 7.62011 803.507
rfemur -7.49893 -23.5515 20.1794
rtibia 5.14149
rfoot -9.10851 -0.144558
rtoes 40.9315
lfemur -17.8415 15.56 -18.1601
ltibia 39.8394
lfoot -21.2643 12.5209
ltoes -0.922387
899
root 6.18235 17.9564 -10.3168 -4.19246 -47.5224 13.2249
lowerback 9.49133 1.04944 5.80814
upperback 1.73078 2.03478 3.11641
thorax -3.42955 0.933181 -0.269588
lowerneck -19.4263 2.3756 1.6344
upperneck 40.8418 0.418863 3.85384
head 18.7983 0.805942 1.58459
rclavicle -3.4191e-014 2.8625e-014
rhumerus -35.4913 -1.61688 -70.0579
rradius 60.4976
rwrist -21.052
rhand -39.8437 40.3662
rfingers 7.12502
rthumb -12.8171 10.7797
lclavicle -3.4191e-014 2.8625e-014
lhumerus -36.1957 -12.1621 92.1938
lradius 43.994
lwrist 18.3147
lhand -18.8602 53.7469
lfingers 7.12502
lthumb 7.44014 803.596
rfemur -7.8823 -27.0925 20.2467
rtibia 5.58387
rfoot -8.83455 3.04283
rtoes 43.6472
lfemur -17.5629 15.6474 -18.0883
ltibia 39.6244
lfoot -21.006 13.1066
ltoes -1.21314
900
root 6.18797 17.9499 -10.3018 -3.90286 -46.8002 13.047
lowerback 9.32988 1.13781 5.912
upperback 1.65675 2.15216 3.00292
thorax -3.40337 0.99082 -0.456156
lowerneck -18.9759 2.96355 2.14067
upperneck 40.7306 1.25756 3.68526
head 18.597 1.19983 1.57781
rclavicle 1.66979e-014 -9.54166e-015
rhumerus -37.2605 -0.506804 -70.4384
rradius 60.7243
rwrist -23.8127
rhand -41.8404 38.5058
rfingers 7.12502
rthumb -14.7414 9.04994
lclavicle 1.66979e-014 -9.54166e-015
lhumerus -36.1944 -12.1388 92.0441
lradius 43.7299
lwrist 18.0759
lhand -19.0324 53.691
lfingers 7.12502
lthumb 7.27387 803.546
rfemur -8.21389 -30.6713 20.2041
rtibia 6.12832
rfoot -8.32984 6.43849
rtoes 47.1895
lfemur -17.2337 15.6842 -18.0672
ltibia 39.3999
lfoot -20.8349 13.935
ltoes -1.48006
901
root 6.19311 17.9431 -10.2821 -3.55456 -45.9877 12.7658
lowerback 9.14391 1.12214 5.97897
upperback 1.5619 2.13015 2.99422
thorax -3.39727 0.979062 -0.496488
lowerneck -18.4621 3.57813 2.62445
upperneck 40.6542 2.23893 3.30845
head 18.4101 1.61744 1.50243
rclavicle -3.29983e-014 -2.54444e-014
rhumerus -39.0218 1.32965 -71.0814
rradius 60.8199
rwrist -26.5806
rhand -43.7279 36.2741
rfingers 7.12502
rthumb -16.5593 6.96059
lclavicle -3.29983e-014 -2.54444e-014
lhumerus -36.3008 -11.9126 92.0538
lradius 43.7767
lwrist 18.3286
lhand -18.8567 53.7321
lfingers 7.12502
lthumb 7.44348 803.581
rfemur -8.59864 -34.3538 20.206
rtibia 6.87147
rfoot -7.58375 9.78168
rtoes 50.1493
lfemur -16.8845 15.691 -17.986
ltibia 39.1502
lfoot -20.6145 14.7808
ltoes -2.1574
902
root 6.20094 17.9255 -10.2676 -3.0987 -45.0939 12.3881
lowerback 8.86692 1.09637 6.1248
upperback 1.50071 2.09076 2.95555
thorax -3.30211 0.96044 -0.607259
lowerneck -18.1532 3.89859 2.98474
upperneck 40.5584 2.75907 3.02615
head 18.2807 1.84667 1.40222
rclavicle -5.04913e-014 2.54444e-014
rhumerus -40.7672 3.48915 -72.0959
rradius 60.6754
rwrist -29.3109
rhand -45.2127 34.3671
rfingers 7.12502
rthumb -17.9883 5.17896
lclavicle -5.04913e-014 2.54444e-014
lhumerus -36.3563 -11.9049 92.1041
lradius 44.026
lwrist 18.9248
lhand -18.9881 54.1399
lfingers 7.12502
lthumb 7.31668 803.993
rfemur -8.93533 -38.142 20.1586
rtibia 7.69898
rfoot -5.8 13.3341
rtoes 54.7999
lfemur -16.6326 15.7254 -17.8226
ltibia 38.8892
lfoot -20.3977 15.2119
ltoes -2.04606
903
root 6.20944 17.9074 -10.2563 -2.68653 -44.1878 12.1066
lowerback 8.53874 1.13256 6.26598
upperback 1.45898 2.12368 2.79922
thorax -3.14967 0.979745 -0.843846
lowerneck -17.7192 4.11624 3.34232
upperneck 40.3118 3.05881 2.91323
head 18.0336 2.01363 1.32791
rclavicle -2.98177e-014 9.54166e-015
rhumerus -42.589 5.73023 -73.4563
rradius 60.3745
rwrist -31.8324
rhand -46.3945 33.229
rfingers 7.12502
rthumb -19.1251 4.14935
lclavicle -2.98177e-014 9.54166e-015
lhumerus -36.3222 -12.077 91.956
lradius 44.0007
lwrist 18.917
lhand -19.3994 53.9577
lfingers 7.12502
lthumb 6.91959 803.825
rfemur -9.286 -41.9438 20.0527
rtibia 8.44777
rfoot -3.38391 16.4789
rtoes 57.8915
lfemur -16.4164 15.7449 -17.7432
ltibia 38.5447
lfoot -20.2725 15.3909
ltoes -1.03388
